<svg id="Kabel1-Doku_Logo_rgb_sw_rot" xmlns="http://www.w3.org/2000/svg" viewBox="0 0 124.36 30">
  <defs>
    <style>.cls-1{fill:#fff}</style>
  </defs>
  <path class="cls-1" d="M0 0v10.16a12.22 12.22 0 0 0 19.81 9.54 12.44 12.44 0 0 0 4-5.66 20.82 20.82 0 0 1-5.94 1.37c.47-2 .87-5.19 1-6.13 3.21-.61 6.76-2.5 7.75-6.74a71.44 71.44 0 0 0 9.04-1.34 19 19 0 0 1 1.74 7.72A19.58 19.58 0 0 1 0 17.31V30h124.36V0H0zm121.64 27.27H44.73V2.73h76.91v24.54z"/>
  <path class="cls-1" d="M54 8.08h7c4.62 0 6.24 3.41 6.24 6.9 0 4.25-2.25 6.94-7.08 6.94H54V8.08zm4.27 10.3h1.67c2.66 0 3-2.15 3-3.45a3.06 3.06 0 0 0-3.36-3.3h-1.31v6.75zM80.88 9.79a6.55 6.55 0 0 0-2.22-1.5 7.85 7.85 0 0 0-5.74 0 6.55 6.55 0 0 0-2.22 1.5 6.71 6.71 0 0 0-1.42 2.29 8.16 8.16 0 0 0-.5 2.92 8.17 8.17 0 0 0 .5 2.92 6.7 6.7 0 0 0 1.42 2.29 6.54 6.54 0 0 0 2.22 1.5 7.87 7.87 0 0 0 5.74 0 6.54 6.54 0 0 0 2.22-1.5 6.71 6.71 0 0 0 1.42-2.29 8.16 8.16 0 0 0 .5-2.92 8.16 8.16 0 0 0-.5-2.92 6.71 6.71 0 0 0-1.42-2.29m-2.62 7.11a3.29 3.29 0 0 1-.69 1.15 2.23 2.23 0 0 1-.89.58 2.78 2.78 0 0 1-.89.16 2.81 2.81 0 0 1-.89-.16 2.26 2.26 0 0 1-.9-.58 3.34 3.34 0 0 1-.69-1.15A5.4 5.4 0 0 1 73 15a5.4 5.4 0 0 1 .28-1.9 3.36 3.36 0 0 1 .72-1.15 2.27 2.27 0 0 1 .89-.58 2.8 2.8 0 0 1 .89-.16 2.77 2.77 0 0 1 .89.16 2.25 2.25 0 0 1 .89.58 3.31 3.31 0 0 1 .69 1.15 5.42 5.42 0 0 1 .28 1.9 5.42 5.42 0 0 1-.28 1.9M108 8.08v8.63a3.08 3.08 0 0 1-.22 1 1.79 1.79 0 0 1-.6.76 1.93 1.93 0 0 1-1.16.3 2.06 2.06 0 0 1-1.2-.3 1.74 1.74 0 0 1-.62-.76 3.05 3.05 0 0 1-.22-1V8.08h-4.35v8.49a5.46 5.46 0 0 0 1.56 4.28 7 7 0 0 0 4.81 1.4 6.93 6.93 0 0 0 4.75-1.39 5.48 5.48 0 0 0 1.55-4.28v-8.5H108zM98.18 8.08h-5.26l-3.79 4.77h-.04V8.08h-4.27v13.84h4.27v-4.09l1.18-1.3 3.41 5.39h5.31l-5.83-8.43 5.02-5.41z"/>
</svg>
