<svg version="1.1" id="Layer_1" xmlns="http://www.w3.org/2000/svg" viewBox="0 0 164 31" xml:space="preserve">
  <style>.st0{fill:#e5e6d7}</style>
  <g id="logo_maxx">
    <path class="st0" d="M31 10.6s-9-.5-18.5 5.4C2.8 21.8.3 30.3 0 31h31V10.6zM0 0h31v8.8H0zM33.6 5v25.8h17.7zM48.7 0H33.6v3.8l18.5 27h17.7zM92.8 0H75.2l21.3 30.8h17.6zM116.7 0H99.1l21.3 30.8H138zM59.2 0l-4.8 7.1 16.4 23.7h1.8V0zM136.3 18l-3.1 4.5 5.7 8.3h6.2zM138.9 0H123l-2.6 3.8 7.9 11.6zM164.5 0h-15.9L146 3.8l8 11.6zM110.5 18l-2.1 3.3 6.6 9.5h4.5zM85.7 30.8l5-7.1L75.2 1.2v29.6zM142.4 0l-8.9 12.8 12.5 18h17.7L142.4 0"/>
  </g>
  </svg>
