<svg xmlns="http://www.w3.org/2000/svg" viewBox="0 0 290 78">
  <path fill="#bba880" d="M289.4 39c0-20.6-16.7-37.3-37.3-37.3h-29v74.6h29.7c20.3-.5 36.6-17 36.6-37.3zm-37.3 27.3h-19V11.7h19c15 0 27.3 12.2 27.3 27.3 0 15-12.3 27.3-27.3 27.3zm-35.1 10h-52.3V1.7h10v64.6H217v10zM82.9 34C85.3 15.2 101.4.6 120.9.6s35.6 14.6 38 33.4h-10.1c-2.4-13.3-14-23.4-27.9-23.4S95.4 20.7 93 34H82.9zM159 44c-2.5 18.8-18.5 33.4-38 33.4S85.4 62.8 82.9 44H93c2.4 13.3 14 23.4 27.9 23.4s25.6-10.1 27.9-23.4H159zm-56.4-1.1l1.3-2.6c1.1.9 2.3 1.2 3.7 1.2.9 0 1.4-.1 1.4-.5 0-.3-.3-.4-2-.6-2.2-.4-4.2-.7-4.2-3s1.9-3.5 4.5-3.5c2.4 0 3.9 1 4.4 2.3l-2.5 1.2c-.3-.7-1.1-.9-2-.9-1.1 0-1.3.3-1.3.6s.3.4 1.9.6c2.2.3 4.2.8 4.2 3.2 0 2.3-2 3.4-4.8 3.4-1.8-.1-3.3-.5-4.6-1.4zm21.3 1v.1h-3.4l-.5-1.3h-3.8l-.5 1.3h-3.4v-.1l4.1-9.9h3.5l4 9.9zm-4.8-3.8l-1-2.8-1 2.8h2zm12.8-3.2h-3V44h-3.1v-7.1h-3V34h9.1v2.9zm-.9 5.6c0-1 .8-1.7 1.8-1.7s1.8.8 1.8 1.7c0 1-.8 1.7-1.8 1.7s-1.8-.7-1.8-1.7zm8.6-8.5v10h-3.1v-7.1h-1.9V34h5zm-62.5 0c.2 1.6.3 3.3.3 5 0 21.2-17.2 38.4-38.4 38.4S.6 60.2.6 39 17.8.6 39 .6C54.9.6 68.5 10.2 74.3 24H63.1c-5-8-13.9-13.4-24.1-13.4-15.7 0-28.4 12.7-28.4 28.4S23.3 67.4 39 67.4c14 0 25.6-10.1 27.9-23.4H48.8V34h28.3z"/>
</svg>
