<svg version="1.1" id="Layer_1" xmlns="http://www.w3.org/2000/svg" viewBox="0 0 91 21" xml:space="preserve">
  <style>.st0{fill:#7cb829}</style>
  <path class="st0" d="M22.1 4.2c-1.8 0-3.3 1.4-3.3 3.3v6c0 3.7-3.1 6.8-6.7 6.8H1.9c-1.1 0-1.9-.9-1.9-1.9 0-1.1.9-1.9 1.9-1.9h9.9c1.8 0 3.3-1.4 3.3-3.3v-6c0-3.7 3.1-6.8 6.7-6.8h4.8c1.1 0 1.9.9 1.9 1.9s-.9 1.9-1.9 1.9h-4.5zM34.3 0c-1.1 0-1.9.9-1.9 1.9v16.7c0 1.1.9 1.9 1.9 1.9s1.9-.9 1.9-1.9V2c.1-1.1-.7-2-1.9-2M90.4 17.2l-7.9-6.9 7.9-6.9c.8-.7.9-1.9.2-2.7s-1.9-.9-2.7-.2l-8.2 7.2L71.5.5c-1-.8-2.1-.7-2.9.2-.7.8-.6 2 .2 2.7l7.9 6.9-7.9 6.9c-.8.7-.9 1.9-.2 2.7.7.8 1.9.9 2.7.2l8.2-7.2 8.2 7.2c.8.7 2 .6 2.7-.2.8-.8.8-2 0-2.7M63.5 17.2l-7.9-6.9 7.9-6.9c.8-.7.9-1.9.2-2.7-.7-.8-1.9-.9-2.7-.2l-8.2 7.2L44.6.5c-.9-.8-2.1-.7-2.8.2-.7.8-.6 2 .2 2.7l7.9 6.9-7.9 6.9c-.8.7-.9 1.9-.2 2.7.7.8 1.9.9 2.7.2l8.2-7.2 8.2 7.2c.8.7 2 .6 2.7-.2.9-.8.8-2-.1-2.7"/>
</svg>
